# xmcd
#
# Track frame offsets:
#	150
#	13291
#	25491
#	36294
#	54408
#	68489
#	80158
#	89051
#	102805
#	111789
#	131610
#
# Disc length: 1926 seconds
#
# Revision: 1
# Processed by: cddbd v1.5.2PL0 Copyright (c) Steve Scherf et al.
# Submitted via: audiograbber 1.83.01
#
DISCID=9407840b
DTITLE=Tree Mountain Stringband - Sold Out
DYEAR=2017
DGENRE=Country
TTITLE0=Walk that lonesome valley
TTITLE1=Bring your clothes back home
TTITLE2=I wonder where you are tonight
TTITLE3=My old chevy van
TTITLE4=Ed's hornpipe - Looking for money
TTITLE5=Why have you been gone so long
TTITLE6=You won't be satisfied that way
TTITLE7=Who's gonna shoe your pretty little feet
TTITLE8=Put a lid on it
TTITLE9=Only a hobo
TTITLE10=At the end what remains is love
EXTD=
EXTT0=
EXTT1=
EXTT2=
EXTT3=
EXTT4=
EXTT5=
EXTT6=
EXTT7=
EXTT8=
EXTT9=
EXTT10=by cml Ledeburgh
PLAYORDER=
